<svg width="400" height="533" viewBox="0 0 400 533" fill="none" xmlns="http://www.w3.org/2000/svg">
  <rect width="400" height="533" rx="16" fill="url(#bg)" />
  <defs>
    <linearGradient id="bg" x1="0" y1="0" x2="400" y2="533" gradientUnits="userSpaceOnUse">
      <stop offset="0%" stop-color="#0A0E1A" />
      <stop offset="100%" stop-color="#050816" />
    </linearGradient>
  </defs>
  <circle cx="200" cy="180" r="80" fill="url(#glow)" opacity="0.4" />
  <defs>
    <radialGradient id="glow" cx="0.5" cy="0.5" r="0.5">
      <stop offset="0%" stop-color="#F5A300" stop-opacity="0.3" />
      <stop offset="100%" stop-color="#B31B1B" stop-opacity="0" />
    </radialGradient>
  </defs>
  <g transform="translate(200, 190)">
    <ellipse cx="0" cy="-20" rx="40" ry="42" fill="none" stroke="#F5A300" stroke-width="1.5" opacity="0.6"/>
    <path d="M-30 40 Q0 20 30 40" fill="none" stroke="#F5A300" stroke-width="1.5" opacity="0.6"/>
    <path d="M-50 65 Q0 95 50 65" fill="none" stroke="#B31B1B" stroke-width="1" opacity="0.4"/>
    <line x1="-25" y1="-20" x2="-25" y2="20" stroke="#F5A300" stroke-width="1" opacity="0.3"/>
    <line x1="25" y1="-20" x2="25" y2="20" stroke="#F5A300" stroke-width="1" opacity="0.3"/>
  </g>
  <g transform="translate(200, 360)">
    <circle cx="0" cy="0" r="45" fill="url(#badge)" />
    <text x="0" y="8" text-anchor="middle" fill="#F8F9FA" font-family="system-ui, sans-serif" font-size="26" font-weight="800">SL</text>
  </g>
  <defs>
    <linearGradient id="badge" x1="-45" y1="-45" x2="45" y2="45" gradientUnits="userSpaceOnUse">
      <stop offset="0%" stop-color="#F5A300" />
      <stop offset="50%" stop-color="#B31B1B" />
      <stop offset="100%" stop-color="#5B0000" />
    </linearGradient>
  </defs>
  <text x="200" y="410" text-anchor="middle" fill="#F8F9FA" font-family="system-ui, sans-serif" font-size="18" font-weight="700">Founder &amp; CEO</text>
  <text x="200" y="435" text-anchor="middle" fill="rgba(248,249,250,0.5)" font-family="system-ui, sans-serif" font-size="13">Sai Sree Logistics</text>
  <line x1="160" y1="460" x2="240" y2="460" stroke="#F5A300" stroke-width="1" opacity="0.3" />
  <text x="200" y="482" text-anchor="middle" fill="rgba(248,249,250,0.35)" font-family="system-ui, sans-serif" font-size="11">A legacy of trust built over 15 years</text>
</svg>
